<svg xmlns="http://www.w3.org/2000/svg" width="24" height="25" viewBox="0 0 24 25" fill="none">
<path fill-rule="evenodd" clip-rule="evenodd" d="M6.3517 9.22803C6.57673 9.00306 6.8819 8.87669 7.2001 8.87669C7.5183 8.87669 7.82346 9.00306 8.0485 9.22803L12.0001 13.1796L15.9517 9.22803C16.178 9.00944 16.4811 8.88849 16.7958 8.89122C17.1104 8.89395 17.4114 9.02016 17.6339 9.24265C17.8564 9.46514 17.9826 9.76611 17.9853 10.0807C17.988 10.3954 17.8671 10.6985 17.6485 10.9248L12.8485 15.7248C12.6235 15.9498 12.3183 16.0762 12.0001 16.0762C11.6819 16.0762 11.3767 15.9498 11.1517 15.7248L6.3517 10.9248C6.12673 10.6998 6.00035 10.3946 6.00035 10.0764C6.00035 9.75823 6.12673 9.45306 6.3517 9.22803Z" fill="currentColor"></path>
</svg>