<svg width="24" height="24" viewBox="0 0 24 24" fill="none" xmlns="http://www.w3.org/2000/svg">
<path d="M10.8004 5.76486C9.49205 5.12785 8.05557 4.79787 6.60039 4.80006C5.09439 4.80006 3.66879 5.14806 2.40039 5.76486V17.7649C3.70875 17.1279 5.14522 16.7979 6.60039 16.8001C8.60319 16.8001 10.462 17.4121 12.0004 18.4621C13.5917 17.3763 15.474 16.797 17.4004 16.8001C18.9064 16.8001 20.332 17.1481 21.6004 17.7649V5.76486C20.292 5.12785 18.8556 4.79787 17.4004 4.80006C15.8944 4.80006 14.4688 5.14806 13.2004 5.76486V14.4001C13.2004 14.7183 13.074 15.0235 12.8489 15.2486C12.6239 15.4736 12.3187 15.6001 12.0004 15.6001C11.6821 15.6001 11.3769 15.4736 11.1519 15.2486C10.9268 15.0235 10.8004 14.7183 10.8004 14.4001V5.76486Z" fill="#186DE4"/>
</svg>
