<svg width="25" height="24" viewBox="0 0 25 24" fill="none" xmlns="http://www.w3.org/2000/svg">
<path fill-rule="evenodd" clip-rule="evenodd" d="M8.07344 2.40002C7.75518 2.40002 7.44995 2.52645 7.22491 2.7515C6.99987 2.97654 6.87344 3.28176 6.87344 3.60002V4.80002H5.67344C5.03692 4.80002 4.42647 5.05288 3.97638 5.50297C3.52629 5.95306 3.27344 6.56351 3.27344 7.20002V19.2C3.27344 19.8365 3.52629 20.447 3.97638 20.8971C4.42647 21.3472 5.03692 21.6 5.67344 21.6H20.0734C20.71 21.6 21.3204 21.3472 21.7705 20.8971C22.2206 20.447 22.4734 19.8365 22.4734 19.2V7.20002C22.4734 6.56351 22.2206 5.95306 21.7705 5.50297C21.3204 5.05288 20.71 4.80002 20.0734 4.80002H18.8734V3.60002C18.8734 3.28176 18.747 2.97654 18.522 2.7515C18.2969 2.52645 17.9917 2.40002 17.6734 2.40002C17.3552 2.40002 17.05 2.52645 16.8249 2.7515C16.5999 2.97654 16.4734 3.28176 16.4734 3.60002V4.80002H9.27344V3.60002C9.27344 3.28176 9.14701 2.97654 8.92197 2.7515C8.69692 2.52645 8.3917 2.40002 8.07344 2.40002ZM8.07344 8.40002C7.75518 8.40002 7.44995 8.52645 7.22491 8.7515C6.99987 8.97654 6.87344 9.28176 6.87344 9.60002C6.87344 9.91828 6.99987 10.2235 7.22491 10.4486C7.44995 10.6736 7.75518 10.8 8.07344 10.8H17.6734C17.9917 10.8 18.2969 10.6736 18.522 10.4486C18.747 10.2235 18.8734 9.91828 18.8734 9.60002C18.8734 9.28176 18.747 8.97654 18.522 8.7515C18.2969 8.52645 17.9917 8.40002 17.6734 8.40002H8.07344Z" fill="#186DE4"/>
</svg>
