<svg width="25" height="24" viewBox="0 0 25 24" fill="none" xmlns="http://www.w3.org/2000/svg">
<path fill-rule="evenodd" clip-rule="evenodd" d="M12.5531 21.6C15.0992 21.6 17.541 20.5886 19.3414 18.7882C21.1417 16.9879 22.1531 14.5461 22.1531 12C22.1531 9.45395 21.1417 7.01215 19.3414 5.2118C17.541 3.41145 15.0992 2.40002 12.5531 2.40002C10.007 2.40002 7.56525 3.41145 5.7649 5.2118C3.96455 7.01215 2.95313 9.45395 2.95312 12C2.95313 14.5461 3.96455 16.9879 5.7649 18.7882C7.56525 20.5886 10.007 21.6 12.5531 21.6ZM13.7531 7.20002C13.7531 6.88176 13.6267 6.57654 13.4017 6.3515C13.1766 6.12645 12.8714 6.00002 12.5531 6.00002C12.2349 6.00002 11.9296 6.12645 11.7046 6.3515C11.4796 6.57654 11.3531 6.88176 11.3531 7.20002V12C11.3532 12.3183 11.4797 12.6234 11.7047 12.8484L15.0983 16.2432C15.2098 16.3547 15.3422 16.4432 15.4878 16.5035C15.6335 16.5638 15.7897 16.5949 15.9473 16.5949C16.105 16.5949 16.2611 16.5638 16.4068 16.5035C16.5525 16.4432 16.6848 16.3547 16.7963 16.2432C16.9078 16.1317 16.9963 15.9994 17.0566 15.8537C17.1169 15.708 17.148 15.5519 17.148 15.3942C17.148 15.2366 17.1169 15.0804 17.0566 14.9347C16.9963 14.7891 16.9078 14.6567 16.7963 14.5452L13.7531 11.5032V7.20002Z" fill="#186DE4"/>
</svg>
