
<svg xmlns="http://www.w3.org/2000/svg" width="24" height="24" viewBox="0 0 24 24" fill="none">
<path fill-rule="evenodd" clip-rule="evenodd" d="M12.0004 21.5999C14.5465 21.5999 16.9883 20.5885 18.7886 18.7881C20.589 16.9878 21.6004 14.546 21.6004 11.9999C21.6004 9.45382 20.589 7.01203 18.7886 5.21168C16.9883 3.41133 14.5465 2.3999 12.0004 2.3999C9.45431 2.3999 7.01252 3.41133 5.21217 5.21168C3.41182 7.01203 2.40039 9.45382 2.40039 11.9999C2.40039 14.546 3.41182 16.9878 5.21217 18.7881C7.01252 20.5885 9.45431 21.5999 12.0004 21.5999ZM8.40039 10.7999H6.00039V13.1999H8.40039V10.7999ZM18.0004 10.7999H15.6004V13.1999H18.0004V10.7999ZM10.8004 10.7999H13.2004V13.1999H10.8004V10.7999Z" fill="#186DE4"/>
</svg>