<svg xmlns="http://www.w3.org/2000/svg" width="24" height="24" viewBox="0 0 24 24" fill="none">
<path fill-rule="evenodd" clip-rule="evenodd" d="M4.79688 4.80002C4.79688 4.1635 5.04973 3.55306 5.49982 3.10297C5.94991 2.65288 6.56036 2.40002 7.19687 2.40002H12.7001C13.3365 2.40016 13.9469 2.65311 14.3969 3.10322L18.4937 7.20002C18.9438 7.65001 19.1967 8.26036 19.1969 8.89682V19.2C19.1969 19.8365 18.944 20.447 18.4939 20.8971C18.0438 21.3472 17.4334 21.6 16.7969 21.6H7.19687C6.56036 21.6 5.94991 21.3472 5.49982 20.8971C5.04973 20.447 4.79688 19.8365 4.79688 19.2V4.80002ZM7.19687 12C7.19687 11.6818 7.3233 11.3765 7.54835 11.1515C7.77339 10.9265 8.07861 10.8 8.39687 10.8H15.5969C15.9151 10.8 16.2204 10.9265 16.4454 11.1515C16.6704 11.3765 16.7969 11.6818 16.7969 12C16.7969 12.3183 16.6704 12.6235 16.4454 12.8486C16.2204 13.0736 15.9151 13.2 15.5969 13.2H8.39687C8.07861 13.2 7.77339 13.0736 7.54835 12.8486C7.3233 12.6235 7.19687 12.3183 7.19687 12ZM8.39687 15.6C8.07861 15.6 7.77339 15.7265 7.54835 15.9515C7.3233 16.1765 7.19687 16.4818 7.19687 16.8C7.19687 17.1183 7.3233 17.4235 7.54835 17.6486C7.77339 17.8736 8.07861 18 8.39687 18H15.5969C15.9151 18 16.2204 17.8736 16.4454 17.6486C16.6704 17.4235 16.7969 17.1183 16.7969 16.8C16.7969 16.4818 16.6704 16.1765 16.4454 15.9515C16.2204 15.7265 15.9151 15.6 15.5969 15.6H8.39687Z" fill="currentColor"/>
</svg>