<svg xmlns="http://www.w3.org/2000/svg" width="24" height="24" viewBox="0 0 24 24" fill="none">
<path d="M10.4477 8.75199C10.2214 8.5334 9.91827 8.41245 9.60364 8.41518C9.289 8.41792 8.98802 8.54412 8.76553 8.76661C8.54304 8.9891 8.41684 9.29007 8.41411 9.60471C8.41137 9.91935 8.53233 10.2225 8.75092 10.4488L11.1509 12.8488C11.376 13.0738 11.6811 13.2001 11.9993 13.2001C12.3175 13.2001 12.6227 13.0738 12.8477 12.8488L15.2477 10.4488C15.4663 10.2225 15.5873 9.91935 15.5845 9.60471C15.5818 9.29007 15.4556 8.9891 15.2331 8.76661C15.0106 8.54412 14.7096 8.41792 14.395 8.41518C14.0804 8.41245 13.7772 8.5334 13.5509 8.75199L13.1993 9.10359V3.60039C13.1993 3.28213 13.0729 2.97691 12.8478 2.75186C12.6228 2.52682 12.3176 2.40039 11.9993 2.40039C11.6811 2.40039 11.3758 2.52682 11.1508 2.75186C10.9257 2.97691 10.7993 3.28213 10.7993 3.60039V9.10359L10.4477 8.75199Z" fill="white"/>
<path d="M3.60156 5.99961C3.60156 5.36309 3.85442 4.75264 4.30451 4.30255C4.75459 3.85247 5.36504 3.59961 6.00156 3.59961H7.20156C7.51982 3.59961 7.82505 3.72604 8.05009 3.95108C8.27513 4.17612 8.40156 4.48135 8.40156 4.79961C8.40156 5.11787 8.27513 5.42309 8.05009 5.64814C7.82505 5.87318 7.51982 5.99961 7.20156 5.99961H6.00156V14.3996H8.40156L9.60156 16.7996H14.4016L15.6016 14.3996H18.0016V5.99961H16.8016C16.4833 5.99961 16.1781 5.87318 15.953 5.64814C15.728 5.42309 15.6016 5.11787 15.6016 4.79961C15.6016 4.48135 15.728 4.17612 15.953 3.95108C16.1781 3.72604 16.4833 3.59961 16.8016 3.59961H18.0016C18.6381 3.59961 19.2485 3.85247 19.6986 4.30255C20.1487 4.75264 20.4016 5.36309 20.4016 5.99961V17.9996C20.4016 18.6361 20.1487 19.2466 19.6986 19.6967C19.2485 20.1468 18.6381 20.3996 18.0016 20.3996H6.00156C5.36504 20.3996 4.75459 20.1468 4.30451 19.6967C3.85442 19.2466 3.60156 18.6361 3.60156 17.9996V5.99961Z" fill="white"/>
</svg>