<svg xmlns="http://www.w3.org/2000/svg" width="32" height="32" viewBox="0 0 32 32" fill="none">
  <path fill-rule="evenodd" clip-rule="evenodd" d="M16.4751 4.40233C16.1505 4.31021 15.808 4.31029 15.4834 4.40268C14.7921 4.59941 14.0942 4.78162 13.394 4.96445C10.2691 5.78034 6.82846 6.67869 3.8852 9.08047L2.4975 10.2129C1.39091 11.1159 1.39149 12.8843 2.49904 13.7864L3.86429 14.8984C4.87291 15.7199 5.92408 16.3625 7.0013 16.8866V23.0585C7.0013 24.5696 7.92826 25.9259 9.33611 26.4748L14.6694 28.554C15.526 28.888 16.4766 28.888 17.3332 28.554L22.6665 26.4748C24.0743 25.9259 25.0013 24.5696 25.0013 23.0585V16.8976C26.0714 16.3764 27.1156 15.737 28.1174 14.9195L28.3346 14.7422V21.3333C28.3346 21.8856 28.7823 22.3333 29.3346 22.3333C29.8869 22.3333 30.3346 21.8856 30.3346 21.3333V12C30.3344 11.3322 30.0573 10.6646 29.5036 10.2135L28.1383 9.10155C25.1736 6.68686 21.5884 5.75179 18.5603 4.96202C17.8615 4.77978 17.1651 4.59815 16.4751 4.40233ZM11.0668 17.083C10.5604 16.8627 9.97124 17.0947 9.75096 17.6011C9.53068 18.1076 9.76268 18.6967 10.2691 18.917C11.9729 19.658 13.7366 20.2643 15.5441 20.7282C15.859 20.8091 16.1894 20.809 16.5044 20.7279C18.307 20.264 20.0654 19.6576 21.7638 18.9165C22.27 18.6956 22.5013 18.1062 22.2804 17.6C22.0595 17.0938 21.4701 16.8626 20.9639 17.0834C19.3684 17.7797 17.7167 18.3497 16.0236 18.7865C14.3253 18.3496 12.668 17.7794 11.0668 17.083Z" fill="#D91A3C"/>
</svg>