<svg xmlns="http://www.w3.org/2000/svg" width="25" height="24" viewBox="0 0 25 24" fill="none"><path d="M2.90625 7.06085L12.5026 11.8584L22.099 7.06085C22.0635 6.44938 21.7956 5.87463 21.35 5.45432C20.9045 5.03401 20.3151 4.79994 19.7026 4.80005H5.30265C4.69015 4.79994 4.10079 5.03401 3.65526 5.45432C3.20974 5.87463 2.94177 6.44938 2.90625 7.06085Z" fill="#226ED8"/><path d="M22.0984 9.74158L12.4984 14.5416L2.89844 9.74158V16.8C2.89844 17.4365 3.15129 18.0469 3.60138 18.497C4.05147 18.9471 4.66192 19.2 5.29844 19.2H19.6984C20.335 19.2 20.9454 18.9471 21.3955 18.497C21.8456 18.0469 22.0984 17.4365 22.0984 16.8V9.74158Z" fill="currentColor"/></svg>