<svg width="1336" height="291" viewBox="0 0 1336 291" fill="none" xmlns="http://www.w3.org/2000/svg">
<path d="M360.62 34.4025H387.844L442.102 174.212H414.206L403.182 145.413H345.664L334.161 174.212H306.266L360.62 34.4025ZM374.423 71.4693L355.634 119.467H393.117L374.423 71.4693ZM553.303 174.212H526.653L500.579 108.917L474.025 174.212H447.47L491.951 70.804H508.822L553.303 174.212ZM567.107 70.804H593.277V109.487L629.322 70.804H661.244L614.75 121.177L661.819 174.212H627.117L596.057 137.715L593.277 140.946V174.212H567.107V70.804ZM721.541 68.1429C731.383 68.1429 740.618 70.5823 749.245 75.4612C757.937 80.3401 764.711 86.9614 769.568 95.3252C774.425 103.689 776.854 112.718 776.854 122.413C776.854 132.17 774.394 141.294 769.473 149.785C764.616 158.276 757.969 164.929 749.533 169.744C741.097 174.497 731.799 176.872 721.637 176.872C706.683 176.872 693.901 171.613 683.293 161.095C672.747 150.514 667.475 137.683 667.475 122.602C667.475 106.446 673.451 92.9809 685.401 82.2093C695.882 72.8317 707.929 68.1429 721.541 68.1429ZM721.925 92.569C713.809 92.569 707.034 95.3886 701.602 101.027C696.233 106.604 693.55 113.763 693.55 122.508C693.55 131.506 696.202 138.792 701.506 144.368C706.874 149.944 713.649 152.731 721.828 152.731C730.009 152.731 736.815 149.912 742.247 144.273C747.68 138.634 750.396 131.378 750.396 122.508C750.396 113.637 747.712 106.446 742.344 100.933C737.039 95.3569 730.233 92.569 721.925 92.569Z" fill="#186DE4"/>
<path d="M931.227 59.0191L912.438 76.7922C899.656 63.4228 885.277 56.738 869.3 56.738C855.816 56.738 844.439 61.3001 835.173 70.4243C825.97 79.5484 821.369 90.7952 821.369 104.165C821.369 113.479 823.414 121.747 827.504 128.971C831.594 136.194 837.378 141.865 844.856 145.984C852.333 150.103 860.64 152.161 869.779 152.161C877.576 152.161 884.702 150.736 891.157 147.885C897.611 144.97 904.706 139.711 912.438 132.107L930.652 150.926C920.235 161.001 910.393 168.003 901.127 171.931C891.86 175.795 881.283 177.728 869.396 177.728C847.476 177.728 829.518 170.853 815.522 157.104C801.589 143.291 794.624 125.613 794.624 104.069C794.624 90.1299 797.786 77.7426 804.114 66.9077C810.504 56.0727 819.611 47.3604 831.435 40.7708C843.321 34.1811 856.103 30.8862 869.779 30.8862C881.411 30.8862 892.594 33.3257 903.331 38.2045C914.131 43.0835 923.43 50.0217 931.227 59.0191ZM978.104 174.212H951.838V70.8044H1043.29V174.212H1017.02V95.8008H978.104V174.212ZM1146.92 70.8044H1172.99V174.212H1146.92V163.281C1141.8 168.097 1136.66 171.582 1131.49 173.736C1126.37 175.827 1120.81 176.873 1114.8 176.873C1101.32 176.873 1089.66 171.709 1079.81 161.381C1069.97 150.989 1065.05 138.095 1065.05 122.698C1065.05 106.731 1069.81 93.6466 1079.33 83.4452C1088.86 73.2439 1100.43 68.1433 1114.03 68.1433C1120.3 68.1433 1126.18 69.3155 1131.67 71.6598C1137.17 74.0043 1142.26 77.5209 1146.92 82.2097V70.8044ZM1119.4 92.0941C1111.29 92.0941 1104.54 94.9454 1099.18 100.648C1093.81 106.287 1091.12 113.542 1091.12 122.413C1091.12 131.347 1093.84 138.697 1099.27 144.463C1104.77 150.229 1111.51 153.112 1119.5 153.112C1127.75 153.112 1134.58 150.292 1140.02 144.654C1145.45 138.95 1148.17 131.506 1148.17 122.318C1148.17 113.321 1145.45 106.034 1140.02 100.458C1134.58 94.8821 1127.71 92.0941 1119.4 92.0941ZM1301.55 91.714L1279.78 103.594C1275.69 99.349 1271.64 96.4028 1267.61 94.7554C1263.64 93.108 1258.98 92.2842 1253.61 92.2842C1243.84 92.2842 1235.91 95.1989 1229.84 101.028C1223.83 106.794 1220.83 114.208 1220.83 123.268C1220.83 132.075 1223.73 139.268 1229.55 144.843C1235.36 150.419 1243 153.207 1252.46 153.207C1264.16 153.207 1273.26 149.247 1279.78 141.327L1300.4 155.298C1289.21 169.681 1273.42 176.873 1253.03 176.873C1234.7 176.873 1220.32 171.487 1209.9 160.716C1199.54 149.944 1194.37 137.335 1194.37 122.888C1194.37 112.877 1196.89 103.658 1201.94 95.2306C1207 86.8034 1214.02 80.182 1223.03 75.3665C1232.11 70.551 1242.24 68.1433 1253.42 68.1433C1263.77 68.1433 1273.07 70.2025 1281.31 74.321C1289.56 78.3763 1296.3 84.1739 1301.55 91.714Z" fill="#D91A3C"/>
<path d="M313.84 206.256H320.347V227.604C323.32 227.604 325.411 227.039 326.619 225.909C327.826 224.755 329.369 222.007 331.247 217.661C332.612 214.469 333.73 212.219 334.601 210.911C335.496 209.581 336.759 208.472 338.391 207.585C340.024 206.676 341.824 206.222 343.791 206.222C346.295 206.222 347.615 206.244 347.749 206.289V211.875C347.525 211.875 347.09 211.865 346.442 211.842C345.726 211.82 345.289 211.809 345.133 211.809C343.054 211.809 341.511 212.308 340.505 213.305C339.476 214.303 338.302 216.431 336.983 219.69C335.329 223.813 333.931 226.419 332.79 227.505C331.65 228.569 330.286 229.422 328.699 230.065C331.873 230.93 335.004 233.834 338.09 238.778L348.218 255.006H340.136L331.919 241.771C329.66 238.112 327.77 235.607 326.25 234.255C324.73 232.881 322.762 232.193 320.347 232.193V255.006H313.84V206.256Z" fill="#161515"/>
<path d="M355.97 219.689H384.01V255.005H378.005V224.644H362.007V242.235C362.007 246.337 361.873 249.041 361.604 250.349C361.336 251.657 360.598 252.799 359.391 253.774C358.183 254.75 356.44 255.238 354.159 255.238C352.75 255.238 351.129 255.149 349.296 254.971V249.983H351.945C353.198 249.983 354.092 249.862 354.628 249.617C355.165 249.352 355.523 248.942 355.702 248.387C355.88 247.833 355.97 246.026 355.97 242.967V219.689Z" fill="#161515"/>
<path d="M393.129 219.689H399.166V246.625L415.902 219.689H422.41V255.005H416.373V228.235L399.636 255.005H393.129V219.689Z" fill="#161515"/>
<path d="M431.537 219.689H437.575V234.388H454.311V219.689H460.349V255.005H454.311V239.343H437.575V255.005H431.537V219.689Z" fill="#161515"/>
<path d="M469.468 219.689H475.505V246.625L492.242 219.689H498.749V255.005H492.712V228.235L475.975 255.005H469.468V219.689Z" fill="#161515"/>
<path d="M507.803 219.689H513.84V234.953C515.763 234.953 517.105 234.588 517.866 233.856C518.648 233.124 519.788 230.995 521.287 227.471C522.472 224.678 523.433 222.838 524.171 221.951C524.909 221.064 525.758 220.466 526.72 220.155C527.681 219.845 529.224 219.689 531.349 219.689H532.556V224.644L530.879 224.611C529.291 224.611 528.274 224.844 527.827 225.31C527.357 225.797 526.642 227.249 525.681 229.666C524.764 231.972 523.926 233.568 523.165 234.454C522.405 235.341 521.231 236.15 519.643 236.882C522.237 237.569 524.786 239.963 527.291 244.064L533.898 255.005H527.257L520.817 244.064C519.498 241.869 518.346 240.429 517.362 239.742C516.379 239.032 515.205 238.677 513.84 238.677V255.005H507.803V219.689Z" fill="#161515"/>
<path d="M562.678 250.65C560.442 252.534 558.285 253.864 556.205 254.64C554.148 255.416 551.935 255.804 549.564 255.804C545.651 255.804 542.643 254.862 540.542 252.977C538.44 251.07 537.389 248.643 537.389 245.695C537.389 243.965 537.78 242.392 538.563 240.973C539.368 239.531 540.407 238.379 541.682 237.514C542.979 236.649 544.432 235.995 546.043 235.552C547.228 235.242 549.016 234.942 551.408 234.654C556.283 234.078 559.872 233.391 562.175 232.592C562.197 231.772 562.208 231.251 562.208 231.03C562.208 228.591 561.639 226.873 560.498 225.876C558.955 224.523 556.663 223.846 553.622 223.846C550.783 223.846 548.68 224.346 547.317 225.343C545.975 226.318 544.981 228.059 544.332 230.564L538.428 229.766C538.965 227.261 539.849 225.243 541.079 223.714C542.309 222.162 544.085 220.976 546.411 220.156C548.736 219.313 551.431 218.892 554.495 218.892C557.536 218.892 560.006 219.247 561.907 219.956C563.807 220.666 565.205 221.563 566.099 222.649C566.994 223.714 567.62 225.066 567.977 226.707C568.179 227.727 568.28 229.566 568.28 232.227V240.208C568.28 245.772 568.402 249.297 568.649 250.782C568.917 252.246 569.431 253.653 570.191 255.006H563.886C563.26 253.764 562.857 252.312 562.678 250.65ZM562.175 237.281C559.984 238.168 556.697 238.922 552.314 239.543C549.832 239.897 548.077 240.296 547.049 240.74C546.02 241.183 545.226 241.837 544.668 242.702C544.108 243.544 543.828 244.486 543.828 245.528C543.828 247.124 544.432 248.455 545.639 249.519C546.869 250.582 548.659 251.115 551.006 251.115C553.331 251.115 555.4 250.615 557.211 249.618C559.022 248.599 560.353 247.213 561.202 245.461C561.851 244.109 562.175 242.114 562.175 239.476V237.281Z" fill="#161515"/>
<path d="M602.02 206.256H631.937V249.253H636.365V266.378H630.562V255.006H598.062V266.378H592.259V249.253H596.083C600.041 243.333 602.02 231.373 602.02 213.371V206.256ZM625.43 212.009H608.291V214.502C608.291 218.648 607.911 224.323 607.151 231.528C606.413 238.711 604.949 244.619 602.757 249.253H625.43V212.009Z" fill="#161515"/>
<path d="M641.897 237.347C641.897 230.808 643.731 225.964 647.398 222.816C650.462 220.2 654.196 218.892 658.601 218.892C663.497 218.892 667.5 220.488 670.608 223.68C673.716 226.851 675.27 231.24 675.27 236.849C675.27 241.394 674.577 244.974 673.191 247.59C671.826 250.183 669.826 252.201 667.187 253.642C664.571 255.083 661.709 255.804 658.601 255.804C653.614 255.804 649.579 254.218 646.492 251.049C643.43 247.878 641.897 243.311 641.897 237.347ZM648.102 237.347C648.102 241.87 649.098 245.262 651.087 247.523C653.078 249.762 655.582 250.882 658.601 250.882C661.597 250.882 664.09 249.751 666.08 247.49C668.071 245.229 669.065 241.781 669.065 237.148C669.065 232.781 668.059 229.478 666.046 227.238C664.057 224.977 661.574 223.846 658.601 223.846C655.582 223.846 653.078 224.967 651.087 227.205C649.098 229.444 648.102 232.826 648.102 237.347Z" fill="#161515"/>
<path d="M682.347 219.689H688.384V234.953C690.307 234.953 691.649 234.588 692.409 233.856C693.191 233.124 694.332 230.995 695.83 227.471C697.015 224.678 697.977 222.838 698.715 221.951C699.452 221.064 700.302 220.466 701.263 220.155C702.225 219.845 703.768 219.689 705.893 219.689H707.1V224.644L705.422 224.611C703.835 224.611 702.818 224.844 702.37 225.31C701.901 225.797 701.186 227.249 700.224 229.666C699.307 231.972 698.468 233.568 697.709 234.454C696.948 235.341 695.774 236.15 694.187 236.882C696.78 237.569 699.329 239.963 701.833 244.064L708.441 255.005H701.8L695.361 244.064C694.041 241.869 692.89 240.429 691.906 239.742C690.922 239.032 689.748 238.677 688.384 238.677V255.005H682.347V219.689Z" fill="#161515"/>
<path d="M709.987 219.689H738.932V224.644H727.462V255.005H721.458V224.644H709.987V219.689Z" fill="#161515"/>
<path d="M741.644 237.347C741.644 230.808 743.477 225.964 747.144 222.816C750.208 220.2 753.942 218.892 758.346 218.892C763.244 218.892 767.246 220.488 770.354 223.68C773.461 226.851 775.016 231.24 775.016 236.849C775.016 241.394 774.322 244.974 772.936 247.59C771.573 250.183 769.571 252.201 766.933 253.642C764.317 255.083 761.454 255.804 758.346 255.804C753.361 255.804 749.324 254.218 746.239 251.049C743.175 247.878 741.644 243.311 741.644 237.347ZM747.849 237.347C747.849 241.87 748.843 245.262 750.834 247.523C752.824 249.762 755.328 250.882 758.346 250.882C761.342 250.882 763.836 249.751 765.826 247.49C767.816 245.229 768.811 241.781 768.811 237.148C768.811 232.781 767.804 229.478 765.792 227.238C763.802 224.977 761.321 223.846 758.346 223.846C755.328 223.846 752.824 224.967 750.834 227.205C748.843 229.444 747.849 232.826 747.849 237.347Z" fill="#161515"/>
<path d="M782.132 268.54V219.69H787.633V224.279C788.93 222.483 790.395 221.142 792.027 220.255C793.659 219.346 795.637 218.892 797.963 218.892C801.004 218.892 803.688 219.668 806.013 221.22C808.339 222.772 810.094 224.967 811.279 227.804C812.464 230.619 813.056 233.712 813.056 237.082C813.056 240.695 812.397 243.955 811.077 246.858C809.781 249.741 807.88 251.958 805.375 253.509C802.894 255.039 800.278 255.804 797.527 255.804C795.515 255.804 793.704 255.382 792.094 254.54C790.506 253.698 789.198 252.633 788.169 251.347V268.54H782.132ZM787.599 237.547C787.599 242.092 788.527 245.45 790.383 247.623C792.239 249.796 794.486 250.882 797.125 250.882C799.808 250.882 802.1 249.762 804.001 247.523C805.924 245.262 806.885 241.771 806.885 237.048C806.885 232.548 805.946 229.179 804.068 226.939C802.211 224.7 799.987 223.581 797.394 223.581C794.822 223.581 792.541 224.778 790.551 227.172C788.583 229.544 787.599 233.003 787.599 237.547Z" fill="#161515"/>
<path d="M843.609 250.65C841.373 252.534 839.215 253.864 837.135 254.64C835.078 255.416 832.865 255.804 830.494 255.804C826.581 255.804 823.574 254.862 821.472 252.977C819.37 251.07 818.319 248.643 818.319 245.695C818.319 243.965 818.711 242.392 819.493 240.973C820.298 239.531 821.338 238.379 822.613 237.514C823.909 236.649 825.363 235.995 826.973 235.552C828.158 235.242 829.946 234.942 832.339 234.654C837.213 234.078 840.802 233.391 843.105 232.592C843.128 231.772 843.14 231.251 843.14 231.03C843.14 228.591 842.569 226.873 841.429 225.876C839.885 224.523 837.593 223.846 834.553 223.846C831.713 223.846 829.612 224.346 828.247 225.343C826.905 226.318 825.911 228.059 825.262 230.564L819.359 229.766C819.895 227.261 820.779 225.243 822.009 223.714C823.239 222.162 825.017 220.976 827.341 220.156C829.667 219.313 832.361 218.892 835.425 218.892C838.466 218.892 840.937 219.247 842.837 219.956C844.738 220.666 846.135 221.563 847.03 222.649C847.924 223.714 848.55 225.066 848.908 226.707C849.109 227.727 849.21 229.566 849.21 232.227V240.208C849.21 245.772 849.333 249.297 849.579 250.782C849.847 252.246 850.361 253.653 851.121 255.006H844.816C844.19 253.764 843.787 252.312 843.609 250.65ZM843.105 237.281C840.914 238.168 837.628 238.922 833.245 239.543C830.763 239.897 829.007 240.296 827.979 240.74C826.95 241.183 826.156 241.837 825.598 242.702C825.038 243.544 824.759 244.486 824.759 245.528C824.759 247.124 825.363 248.455 826.571 249.519C827.8 250.582 829.589 251.115 831.936 251.115C834.262 251.115 836.33 250.615 838.142 249.618C839.953 248.599 841.283 247.213 842.133 245.461C842.781 244.109 843.105 242.114 843.105 239.476V237.281Z" fill="#161515"/>
<path d="M878.558 206.256H917.229V255.005H910.69V212.008H885.064V255.005H878.558V206.256Z" fill="#161515"/>
<path d="M924.847 237.347C924.847 230.808 926.681 225.964 930.348 222.816C933.412 220.2 937.146 218.892 941.55 218.892C946.448 218.892 950.45 220.488 953.558 223.68C956.666 226.851 958.219 231.24 958.219 236.849C958.219 241.394 957.526 244.974 956.14 247.59C954.777 250.183 952.775 252.201 950.137 253.642C947.521 255.083 944.658 255.804 941.55 255.804C936.564 255.804 932.528 254.218 929.442 251.049C926.379 247.878 924.847 243.311 924.847 237.347ZM931.053 237.347C931.053 241.87 932.047 245.262 934.037 247.523C936.028 249.762 938.532 250.882 941.55 250.882C944.546 250.882 947.04 249.751 949.029 247.49C951.02 245.229 952.015 241.781 952.015 237.148C952.015 232.781 951.008 229.478 948.996 227.238C947.006 224.977 944.525 223.846 941.55 223.846C938.532 223.846 936.028 224.967 934.037 227.205C932.047 229.444 931.053 232.826 931.053 237.347Z" fill="#161515"/>
<path d="M966.739 219.689H994.778V255.005H988.771V224.644H972.776V242.235C972.776 246.337 972.642 249.041 972.373 250.349C972.106 251.657 971.367 252.799 970.16 253.774C968.953 254.75 967.209 255.238 964.928 255.238C963.519 255.238 961.899 255.149 960.065 254.971V249.983H962.714C963.967 249.983 964.861 249.862 965.397 249.617C965.934 249.352 966.292 248.942 966.471 248.387C966.65 247.833 966.739 246.026 966.739 242.967V219.689Z" fill="#161515"/>
<path d="M1003.89 219.689H1009.93V246.625L1026.67 219.689H1033.18V255.005H1027.14V228.235L1010.4 255.005H1003.89V219.689Z" fill="#161515"/>
<path d="M1042.24 219.689H1048.28V234.953C1050.2 234.953 1051.53 234.588 1052.3 233.856C1053.09 233.124 1054.22 230.995 1055.72 227.471C1056.9 224.678 1057.87 222.838 1058.6 221.951C1059.34 221.064 1060.19 220.466 1061.15 220.155C1062.12 219.845 1063.66 219.689 1065.78 219.689H1066.99V224.644L1065.32 224.611C1063.73 224.611 1062.71 224.844 1062.26 225.31C1061.79 225.797 1061.08 227.249 1060.11 229.666C1059.2 231.972 1058.36 233.568 1057.6 234.454C1056.84 235.341 1055.67 236.15 1054.08 236.882C1056.67 237.569 1059.22 239.963 1061.72 244.064L1068.33 255.005H1061.69L1055.26 244.064C1053.93 241.869 1052.78 240.429 1051.8 239.742C1050.81 239.032 1049.64 238.677 1048.28 238.677V255.005H1042.24V219.689Z" fill="#161515"/>
<path d="M1097.11 250.65C1094.87 252.534 1092.71 253.864 1090.63 254.64C1088.58 255.416 1086.36 255.804 1083.99 255.804C1080.08 255.804 1077.07 254.862 1074.97 252.977C1072.86 251.07 1071.81 248.643 1071.81 245.695C1071.81 243.965 1072.2 242.392 1072.99 240.973C1073.79 239.531 1074.84 238.379 1076.11 237.514C1077.41 236.649 1078.86 235.995 1080.47 235.552C1081.66 235.242 1083.44 234.942 1085.84 234.654C1090.71 234.078 1094.3 233.391 1096.6 232.592C1096.63 231.772 1096.64 231.251 1096.64 231.03C1096.64 228.591 1096.07 226.873 1094.93 225.876C1093.38 224.523 1091.09 223.846 1088.05 223.846C1085.21 223.846 1083.11 224.346 1081.75 225.343C1080.4 226.318 1079.41 228.059 1078.76 230.564L1072.85 229.766C1073.39 227.261 1074.28 225.243 1075.5 223.714C1076.74 222.162 1078.52 220.976 1080.84 220.156C1083.16 219.313 1085.86 218.892 1088.92 218.892C1091.96 218.892 1094.43 219.247 1096.33 219.956C1098.24 220.666 1099.63 221.563 1100.52 222.649C1101.42 223.714 1102.05 225.066 1102.41 226.707C1102.61 227.727 1102.7 229.566 1102.7 232.227V240.208C1102.7 245.772 1102.83 249.297 1103.08 250.782C1103.34 252.246 1103.86 253.653 1104.62 255.006H1098.32C1097.69 253.764 1097.29 252.312 1097.11 250.65ZM1096.6 237.281C1094.41 238.168 1091.12 238.922 1086.74 239.543C1084.26 239.897 1082.5 240.296 1081.47 240.74C1080.45 241.183 1079.66 241.837 1079.1 242.702C1078.54 243.544 1078.25 244.486 1078.25 245.528C1078.25 247.124 1078.86 248.455 1080.07 249.519C1081.29 250.582 1083.08 251.115 1085.44 251.115C1087.76 251.115 1089.82 250.615 1091.64 249.618C1093.45 248.599 1094.78 247.213 1095.63 245.461C1096.27 244.109 1096.6 242.114 1096.6 239.476V237.281Z" fill="#161515"/>
<path d="M1112.1 268.54V219.69H1117.6V224.279C1118.89 222.483 1120.37 221.142 1122 220.255C1123.63 219.346 1125.61 218.892 1127.94 218.892C1130.97 218.892 1133.66 219.668 1135.98 221.22C1138.31 222.772 1140.06 224.967 1141.25 227.804C1142.43 230.619 1143.02 233.712 1143.02 237.082C1143.02 240.695 1142.36 243.955 1141.05 246.858C1139.75 249.741 1137.85 251.958 1135.35 253.509C1132.86 255.039 1130.24 255.804 1127.49 255.804C1125.48 255.804 1123.67 255.382 1122.06 254.54C1120.47 253.698 1119.17 252.633 1118.14 251.347V268.54H1112.1ZM1117.57 237.547C1117.57 242.092 1118.49 245.45 1120.36 247.623C1122.21 249.796 1124.45 250.882 1127.09 250.882C1129.78 250.882 1132.07 249.762 1133.97 247.523C1135.9 245.262 1136.86 241.771 1136.86 237.048C1136.86 232.548 1135.92 229.179 1134.04 226.939C1132.18 224.7 1129.96 223.581 1127.37 223.581C1124.79 223.581 1122.51 224.778 1120.52 227.172C1118.55 229.544 1117.57 233.003 1117.57 237.547Z" fill="#161515"/>
<path d="M1150.37 219.689H1178.48V255.006H1172.44V224.644H1156.41V255.006H1150.37V219.689Z" fill="#161515"/>
<path d="M1185.32 237.347C1185.32 230.808 1187.16 225.964 1190.82 222.815C1193.88 220.199 1197.62 218.891 1202.02 218.891C1206.92 218.891 1210.92 220.487 1214.03 223.68C1217.13 226.851 1218.7 231.24 1218.7 236.849C1218.7 241.394 1218 244.973 1216.61 247.589C1215.25 250.183 1213.25 252.201 1210.61 253.642C1208 255.082 1205.13 255.804 1202.02 255.804C1197.03 255.804 1193 254.218 1189.91 251.048C1186.85 247.878 1185.32 243.311 1185.32 237.347ZM1191.52 237.347C1191.52 241.87 1192.51 245.261 1194.51 247.523C1196.5 249.762 1199 250.882 1202.02 250.882C1205.02 250.882 1207.51 249.751 1209.5 247.49C1211.49 245.228 1212.48 241.781 1212.48 237.147C1212.48 232.781 1211.48 229.477 1209.47 227.238C1207.47 224.977 1204.99 223.846 1202.02 223.846C1199 223.846 1196.5 224.966 1194.51 227.205C1192.51 229.444 1191.52 232.825 1191.52 237.347Z" fill="#161515"/>
<path d="M1225.83 219.689H1239.75C1243.18 219.689 1245.71 219.977 1247.37 220.554C1249.05 221.108 1250.47 222.139 1251.66 223.646C1252.87 225.154 1253.48 226.961 1253.48 229.067C1253.48 230.752 1253.11 232.227 1252.4 233.49C1251.71 234.732 1250.66 235.773 1249.25 236.616C1250.92 237.17 1252.31 238.212 1253.41 239.742C1254.53 241.249 1255.09 243.045 1255.09 245.129C1254.86 248.476 1253.65 250.96 1251.46 252.577C1249.27 254.196 1246.08 255.005 1241.9 255.005H1225.83V219.689ZM1231.87 234.554H1238.31C1240.88 234.554 1242.65 234.421 1243.61 234.155C1244.57 233.889 1245.44 233.356 1246.19 232.558C1246.96 231.739 1247.33 230.763 1247.33 229.633C1247.33 227.77 1246.66 226.474 1245.32 225.742C1244 225.01 1241.74 224.644 1238.52 224.644H1231.87V234.554ZM1231.87 250.084H1239.82C1243.25 250.084 1245.59 249.695 1246.87 248.92C1248.14 248.122 1248.81 246.758 1248.88 244.829C1248.88 243.699 1248.51 242.657 1247.77 241.703C1247.04 240.728 1246.07 240.119 1244.89 239.874C1243.7 239.609 1241.8 239.475 1239.18 239.475H1231.87V250.084Z" fill="#161515"/>
<path d="M1284.73 250.65C1282.49 252.534 1280.34 253.864 1278.26 254.64C1276.2 255.416 1273.99 255.804 1271.61 255.804C1267.71 255.804 1264.69 254.862 1262.59 252.977C1260.49 251.07 1259.44 248.643 1259.44 245.695C1259.44 243.965 1259.83 242.392 1260.62 240.973C1261.42 239.531 1262.45 238.379 1263.73 237.514C1265.03 236.649 1266.48 235.995 1268.09 235.552C1269.28 235.242 1271.06 234.942 1273.46 234.654C1278.34 234.078 1281.92 233.391 1284.23 232.592C1284.25 231.772 1284.26 231.251 1284.26 231.03C1284.26 228.591 1283.69 226.873 1282.55 225.876C1281.01 224.523 1278.71 223.846 1275.68 223.846C1272.83 223.846 1270.73 224.346 1269.37 225.343C1268.03 226.318 1267.03 228.059 1266.38 230.564L1260.48 229.766C1261.02 227.261 1261.9 225.243 1263.13 223.714C1264.36 222.162 1266.14 220.976 1268.46 220.156C1270.79 219.313 1273.48 218.892 1276.54 218.892C1279.58 218.892 1282.06 219.247 1283.96 219.956C1285.86 220.666 1287.26 221.563 1288.15 222.649C1289.05 223.714 1289.68 225.066 1290.03 226.707C1290.23 227.727 1290.33 229.566 1290.33 232.227V240.208C1290.33 245.772 1290.45 249.297 1290.7 250.782C1290.97 252.246 1291.48 253.653 1292.25 255.006H1285.94C1285.31 253.764 1284.9 252.312 1284.73 250.65ZM1284.23 237.281C1282.04 238.168 1278.75 238.922 1274.36 239.543C1271.89 239.897 1270.13 240.296 1269.1 240.74C1268.07 241.183 1267.27 241.837 1266.72 242.702C1266.16 243.544 1265.88 244.486 1265.88 245.528C1265.88 247.124 1266.48 248.455 1267.69 249.519C1268.92 250.582 1270.71 251.115 1273.06 251.115C1275.38 251.115 1277.45 250.615 1279.26 249.618C1281.08 248.599 1282.4 247.213 1283.26 245.461C1283.9 244.109 1284.23 242.114 1284.23 239.476V237.281Z" fill="#161515"/>
<path d="M88.0571 150.04C70.2684 109.718 82.276 62.5143 118.854 42.1112C118.854 42.1112 128.971 36.0752 139.089 32.9365C82.6095 36.6786 37.9148 87.5043 37.9148 149.678C37.9148 214.266 86.1668 266.54 145.649 266.54C217.908 266.54 206.774 179.586 145.649 185.413C134.197 185.533 102.511 182.877 88.0571 150.04Z" fill="#186EE4"/>
<path d="M227.737 149.436C245.63 189.758 233.552 236.962 196.761 257.365C196.761 257.365 186.584 263.401 176.408 266.54C233.217 262.797 278.173 211.972 278.173 149.798C278.173 85.2104 229.639 32.9364 169.81 32.9364C97.1281 32.9364 108.327 119.89 169.81 114.063C181.328 113.943 213.199 116.599 227.737 149.436Z" fill="#D91A3C"/>
</svg>
