<svg xmlns="http://www.w3.org/2000/svg" width="24" height="24" viewBox="0 0 24 24" fill="none">
<path fill-rule="evenodd" clip-rule="evenodd" d="M15.6031 2.40002L8.40313 7.20002V21.6L15.6031 17.0362V2.40002ZM3.50758 4.34764C3.31878 4.18812 3.07825 4.07949 2.81642 4.03549C2.55458 3.99149 2.28319 4.01408 2.03654 4.10042C1.7899 4.18675 1.57908 4.33295 1.43073 4.52054C1.28239 4.70812 1.20318 4.92867 1.20312 5.15429V16.5638C1.2032 16.8664 1.34548 17.1566 1.59867 17.3705L7.20312 21.6V7.4362L3.50758 4.34764ZM22.4076 6.62955L16.8031 2.40002V17.0362L20.4987 19.6524C20.6875 19.8119 20.928 19.9206 21.1898 19.9646C21.4517 20.0086 21.7231 19.986 21.9697 19.8996C22.2164 19.8133 22.4272 19.6671 22.5755 19.4795C22.7239 19.2919 22.8031 19.0714 22.8031 18.8458V7.4362C22.803 7.13363 22.6608 6.84347 22.4076 6.62955Z" fill="currentColor"/>
</svg>