<svg width="24" height="25" viewBox="0 0 24 25" fill="none" xmlns="http://www.w3.org/2000/svg">
<path d="M2.40039 4.07695C2.40039 3.75869 2.52682 3.45347 2.75186 3.22842C2.97691 3.00338 3.28213 2.87695 3.60039 2.87695H6.18399C6.46804 2.87708 6.74283 2.97797 6.95948 3.16166C7.17614 3.34536 7.32061 3.59995 7.36719 3.88015L8.25519 9.20215C8.29762 9.45562 8.25756 9.716 8.14091 9.94499C8.02425 10.174 7.83717 10.3595 7.60719 10.4742L5.74959 11.4018C6.41572 13.0525 7.40779 14.5521 8.66652 15.8108C9.92525 17.0696 11.4248 18.0616 13.0756 18.7278L14.0044 16.8702C14.119 16.6404 14.3043 16.4535 14.5331 16.3368C14.7618 16.2202 15.0219 16.18 15.2752 16.2222L20.5972 17.1102C20.8774 17.1567 21.132 17.3012 21.3157 17.5179C21.4994 17.7345 21.6003 18.0093 21.6004 18.2934V20.877C21.6004 21.1952 21.474 21.5004 21.2489 21.7255C21.0239 21.9505 20.7187 22.077 20.4004 22.077H18.0004C9.38439 22.077 2.40039 15.093 2.40039 6.47695V4.07695Z" fill="currentColor"/>
</svg>
