<svg width="24" height="25" viewBox="0 0 24 25" fill="none" xmlns="http://www.w3.org/2000/svg">
<path d="M17.297 8.87686L21.2486 4.92526C21.4672 4.69893 21.5881 4.39581 21.5854 4.08117C21.5827 3.76654 21.4565 3.46556 21.234 3.24307C21.0115 3.02058 20.7105 2.89438 20.3959 2.89165C20.0812 2.88891 19.7781 3.00987 19.5518 3.22846L15.6002 7.18006V5.27686C15.6002 4.9586 15.4738 4.65337 15.2487 4.42833C15.0237 4.20328 14.7185 4.07686 14.4002 4.07686C14.0819 4.07686 13.7767 4.20328 13.5517 4.42833C13.3266 4.65337 13.2002 4.9586 13.2002 5.27686V10.0805C13.2002 10.3173 13.2706 10.5488 13.4024 10.7456C13.5342 10.9424 13.7216 11.0955 13.9406 11.1857C14.0863 11.2461 14.2425 11.277 14.4002 11.2769H19.2002C19.5185 11.2769 19.8237 11.1504 20.0487 10.9254C20.2738 10.7003 20.4002 10.3951 20.4002 10.0769C20.4002 9.7586 20.2738 9.45337 20.0487 9.22833C19.8237 9.00328 19.5185 8.87686 19.2002 8.87686H17.297Z" fill="#186DE4"/>
<path d="M2.40039 4.07695C2.40039 3.75869 2.52682 3.45347 2.75186 3.22842C2.97691 3.00338 3.28213 2.87695 3.60039 2.87695H6.18399C6.46804 2.87708 6.74283 2.97797 6.95948 3.16166C7.17614 3.34536 7.32061 3.59995 7.36719 3.88015L8.25519 9.20215C8.29762 9.45562 8.25756 9.716 8.14091 9.94499C8.02425 10.174 7.83717 10.3595 7.60719 10.4742L5.74959 11.4018C6.41572 13.0525 7.40779 14.5521 8.66652 15.8108C9.92525 17.0696 11.4248 18.0616 13.0756 18.7278L14.0044 16.8702C14.119 16.6404 14.3043 16.4535 14.5331 16.3368C14.7618 16.2202 15.0219 16.18 15.2752 16.2222L20.5972 17.1102C20.8774 17.1567 21.132 17.3012 21.3157 17.5179C21.4994 17.7345 21.6003 18.0093 21.6004 18.2934V20.877C21.6004 21.1952 21.474 21.5004 21.2489 21.7255C21.0239 21.9505 20.7187 22.077 20.4004 22.077H18.0004C9.38439 22.077 2.40039 15.093 2.40039 6.47695V4.07695Z" fill="#186DE4"/>
</svg>
