<svg xmlns="http://www.w3.org/2000/svg" width="24" height="24" viewBox="0 0 24 24" fill="none">
  <path d="M2.40039 3.60002C2.40039 3.28176 2.52682 2.97654 2.75186 2.7515C2.97691 2.52645 3.28213 2.40002 3.60039 2.40002H6.18399C6.46804 2.40016 6.74283 2.50104 6.95948 2.68474C7.17614 2.86843 7.32061 3.12302 7.36719 3.40322L8.25519 8.72522C8.29762 8.97869 8.25756 9.23907 8.14091 9.46806C8.02425 9.69705 7.83717 9.88254 7.60719 9.99723L5.74959 10.9248C6.41572 12.5756 7.40779 14.0752 8.66652 15.3339C9.92525 16.5926 11.4248 17.5847 13.0756 18.2508L14.0044 16.3932C14.119 16.1635 14.3043 15.9765 14.5331 15.8599C14.7618 15.7433 15.0219 15.7031 15.2752 15.7452L20.5972 16.6332C20.8774 16.6798 21.132 16.8243 21.3157 17.0409C21.4994 17.2576 21.6003 17.5324 21.6004 17.8164V20.4C21.6004 20.7183 21.474 21.0235 21.2489 21.2486C21.0239 21.4736 20.7187 21.6 20.4004 21.6H18.0004C9.38439 21.6 2.40039 14.616 2.40039 6.00002V3.60002Z" fill="#D91A3C"/>
</svg>