<svg width="39" height="39" viewBox="0 0 39 39" fill="none" xmlns="http://www.w3.org/2000/svg">
<path d="M3.14375 33.0984L8.42375 13.8984L10.1838 21.1784C7.89042 21.1784 5.99708 20.5117 4.50375 19.1784C3.06375 17.7917 2.34375 15.9251 2.34375 13.5784C2.34375 11.2851 3.09042 9.44511 4.58375 8.05844C6.07708 6.61844 7.91708 5.89844 10.1038 5.89844C12.3438 5.89844 14.1838 6.61844 15.6238 8.05844C17.0638 9.44511 17.7838 11.2851 17.7838 13.5784C17.7838 14.2718 17.7305 14.9651 17.6238 15.6584C17.5705 16.2984 17.3838 17.0717 17.0638 17.9784C16.7971 18.8851 16.3438 20.0851 15.7038 21.5784L11.0638 33.0984H3.14375ZM22.0238 33.0984L27.3038 13.8984L29.0638 21.1784C26.7705 21.1784 24.8771 20.5117 23.3838 19.1784C21.9438 17.7917 21.2238 15.9251 21.2238 13.5784C21.2238 11.2851 21.9705 9.44511 23.4638 8.05844C24.9571 6.61844 26.7971 5.89844 28.9838 5.89844C31.2238 5.89844 33.0638 6.61844 34.5038 8.05844C35.9438 9.44511 36.6638 11.2851 36.6638 13.5784C36.6638 14.2718 36.6105 14.9651 36.5038 15.6584C36.4505 16.2984 36.2638 17.0717 35.9438 17.9784C35.6771 18.8851 35.2238 20.0851 34.5838 21.5784L29.9438 33.0984H22.0238Z" fill="#D91A3C"/>
</svg>
