<svg xmlns="http://www.w3.org/2000/svg" width="24" height="24" viewBox="0 0 24 24" fill="none">
  <path d="M15.6002 7.19998C15.6002 8.15476 15.2209 9.07043 14.5458 9.74556C13.8706 10.4207 12.955 10.8 12.0002 10.8C11.0454 10.8 10.1297 10.4207 9.45461 9.74556C8.77948 9.07043 8.4002 8.15476 8.4002 7.19998C8.4002 6.2452 8.77948 5.32952 9.45461 4.65439C10.1297 3.97926 11.0454 3.59998 12.0002 3.59998C12.955 3.59998 13.8706 3.97926 14.5458 4.65439C15.2209 5.32952 15.6002 6.2452 15.6002 7.19998ZM21.6002 9.59998C21.6002 10.2365 21.3473 10.8469 20.8973 11.297C20.4472 11.7471 19.8367 12 19.2002 12C18.5637 12 17.9532 11.7471 17.5031 11.297C17.0531 10.8469 16.8002 10.2365 16.8002 9.59998C16.8002 8.96346 17.0531 8.35301 17.5031 7.90292C17.9532 7.45283 18.5637 7.19998 19.2002 7.19998C19.8367 7.19998 20.4472 7.45283 20.8973 7.90292C21.3473 8.35301 21.6002 8.96346 21.6002 9.59998ZM16.8002 18C16.8002 16.7269 16.2945 15.506 15.3943 14.6059C14.4941 13.7057 13.2732 13.2 12.0002 13.2C10.7272 13.2 9.50626 13.7057 8.60608 14.6059C7.70591 15.506 7.2002 16.7269 7.2002 18V21.6H16.8002V18ZM7.2002 9.59998C7.2002 10.2365 6.94734 10.8469 6.49725 11.297C6.04717 11.7471 5.43672 12 4.8002 12C4.16368 12 3.55323 11.7471 3.10314 11.297C2.65305 10.8469 2.4002 10.2365 2.4002 9.59998C2.4002 8.96346 2.65305 8.35301 3.10314 7.90292C3.55323 7.45283 4.16368 7.19998 4.8002 7.19998C5.43672 7.19998 6.04717 7.45283 6.49725 7.90292C6.94734 8.35301 7.2002 8.96346 7.2002 9.59998ZM19.2002 21.6V18C19.2019 16.7799 18.8921 15.5796 18.3002 14.5128C18.8322 14.3766 19.3883 14.3638 19.926 14.4752C20.4638 14.5867 20.9689 14.8195 21.403 15.1559C21.8371 15.4923 22.1886 15.9233 22.4307 16.4162C22.6729 16.9091 22.7992 17.4508 22.8002 18V21.6H19.2002ZM5.7002 14.5128C5.10829 15.5796 4.79851 16.7799 4.8002 18V21.6H1.2002V18C1.19996 17.4504 1.32555 16.9081 1.56733 16.4146C1.80911 15.9211 2.16067 15.4895 2.59506 15.1529C3.02944 14.8163 3.53513 14.5835 4.07337 14.4726C4.6116 14.3616 5.16809 14.3754 5.7002 14.5128Z" fill="#D91A3C"/>
</svg>