<svg xmlns="http://www.w3.org/2000/svg" width="24" height="24" viewBox="0 0 24 24" fill="none">
  <path d="M4.80039 4.80005C4.16387 4.80005 3.55342 5.05291 3.10333 5.50299C2.65325 5.95308 2.40039 6.56353 2.40039 7.20005V8.40005H21.6004V7.20005C21.6004 6.56353 21.3475 5.95308 20.8974 5.50299C20.4474 5.05291 19.8369 4.80005 19.2004 4.80005H4.80039Z" fill="#D91A3C"/>
  <path fill-rule="evenodd" clip-rule="evenodd" d="M21.6004 10.8H2.40039V16.8C2.40039 17.4366 2.65325 18.047 3.10333 18.4971C3.55342 18.9472 4.16387 19.2 4.80039 19.2H19.2004C19.8369 19.2 20.4474 18.9472 20.8974 18.4971C21.3475 18.047 21.6004 17.4366 21.6004 16.8V10.8ZM4.80039 15.6C4.80039 15.2818 4.92682 14.9766 5.15186 14.7515C5.37691 14.5265 5.68213 14.4 6.00039 14.4H7.20039C7.51865 14.4 7.82387 14.5265 8.04892 14.7515C8.27396 14.9766 8.40039 15.2818 8.40039 15.6C8.40039 15.9183 8.27396 16.2235 8.04892 16.4486C7.82387 16.6736 7.51865 16.8 7.20039 16.8H6.00039C5.68213 16.8 5.37691 16.6736 5.15186 16.4486C4.92682 16.2235 4.80039 15.9183 4.80039 15.6ZM10.8004 14.4C10.4821 14.4 10.1769 14.5265 9.95186 14.7515C9.72682 14.9766 9.60039 15.2818 9.60039 15.6C9.60039 15.9183 9.72682 16.2235 9.95186 16.4486C10.1769 16.6736 10.4821 16.8 10.8004 16.8H12.0004C12.3187 16.8 12.6239 16.6736 12.8489 16.4486C13.074 16.2235 13.2004 15.9183 13.2004 15.6C13.2004 15.2818 13.074 14.9766 12.8489 14.7515C12.6239 14.5265 12.3187 14.4 12.0004 14.4H10.8004Z" fill="#D91A3C"/>
</svg>