<svg xmlns="http://www.w3.org/2000/svg" width="24" height="24" viewBox="0 0 24 24" fill="none">
  <path fill-rule="evenodd" clip-rule="evenodd" d="M7.52062 4.14598C8.29253 4.08435 9.02532 3.78074 9.61462 3.27838C10.2802 2.71149 11.1259 2.40015 12.0002 2.40015C12.8745 2.40015 13.7202 2.71149 14.3858 3.27838C14.9751 3.78074 15.7079 4.08435 16.4798 4.14598C17.3515 4.21565 18.1699 4.59353 18.7883 5.2119C19.4067 5.83026 19.7846 6.64866 19.8542 7.52038C19.9154 8.29198 20.219 9.02518 20.7218 9.61438C21.2887 10.28 21.6001 11.1257 21.6001 12C21.6001 12.8743 21.2887 13.72 20.7218 14.3856C20.2195 14.9749 19.9159 15.7077 19.8542 16.4796C19.7846 17.3513 19.4067 18.1697 18.7883 18.7881C18.1699 19.4064 17.3515 19.7843 16.4798 19.854C15.7079 19.9156 14.9751 20.2192 14.3858 20.7216C13.7202 21.2885 12.8745 21.5998 12.0002 21.5998C11.1259 21.5998 10.2802 21.2885 9.61462 20.7216C9.02532 20.2192 8.29253 19.9156 7.52062 19.854C6.6489 19.7843 5.8305 19.4064 5.21214 18.7881C4.59378 18.1697 4.21589 17.3513 4.14622 16.4796C4.08459 15.7077 3.78098 14.9749 3.27862 14.3856C2.71173 13.72 2.40039 12.8743 2.40039 12C2.40039 11.1257 2.71173 10.28 3.27862 9.61438C3.78098 9.02507 4.08459 8.29229 4.14622 7.52038C4.21589 6.64866 4.59378 5.83026 5.21214 5.2119C5.8305 4.59353 6.6489 4.21565 7.52062 4.14598ZM16.4486 10.4484C16.6672 10.2221 16.7882 9.91893 16.7854 9.6043C16.7827 9.28966 16.6565 8.98869 16.434 8.7662C16.2115 8.54371 15.9105 8.4175 15.5959 8.41477C15.2813 8.41203 14.9781 8.53299 14.7518 8.75158L10.8002 12.7032L9.24862 11.1516C9.0223 10.933 8.71918 10.812 8.40454 10.8148C8.0899 10.8175 7.78893 10.9437 7.56644 11.1662C7.34395 11.3887 7.21775 11.6897 7.21501 12.0043C7.21228 12.3189 7.33323 12.6221 7.55182 12.8484L9.95182 15.2484C10.1769 15.4733 10.482 15.5997 10.8002 15.5997C11.1184 15.5997 11.4236 15.4733 11.6486 15.2484L16.4486 10.4484Z" fill="#D91A3C"/>
</svg>