<svg xmlns="http://www.w3.org/2000/svg" width="24" height="24" viewBox="0 0 24 24" fill="none">
  <path fill-rule="evenodd" clip-rule="evenodd" d="M5.99961 10.8V8.40002C5.99961 6.80873 6.63175 5.2826 7.75697 4.15738C8.88219 3.03217 10.4083 2.40002 11.9996 2.40002C13.5909 2.40002 15.117 3.03217 16.2422 4.15738C17.3675 5.2826 17.9996 6.80873 17.9996 8.40002V10.8C18.6361 10.8 19.2466 11.0529 19.6967 11.503C20.1468 11.9531 20.3996 12.5635 20.3996 13.2V19.2C20.3996 19.8365 20.1468 20.447 19.6967 20.8971C19.2466 21.3472 18.6361 21.6 17.9996 21.6H5.99961C5.36309 21.6 4.75264 21.3472 4.30255 20.8971C3.85247 20.447 3.59961 19.8365 3.59961 19.2V13.2C3.59961 12.5635 3.85247 11.9531 4.30255 11.503C4.75264 11.0529 5.36309 10.8 5.99961 10.8ZM15.5996 8.40002V10.8H8.39961V8.40002C8.39961 7.44525 8.77889 6.52957 9.45402 5.85444C10.1292 5.17931 11.0448 4.80002 11.9996 4.80002C12.9544 4.80002 13.8701 5.17931 14.5452 5.85444C15.2203 6.52957 15.5996 7.44525 15.5996 8.40002Z" fill="#D91A3C"/>
</svg>