<svg xmlns="http://www.w3.org/2000/svg" width="24" height="24" viewBox="0 0 24 24" fill="none">
  <path fill-rule="evenodd" clip-rule="evenodd" d="M12.0004 21.6C14.5465 21.6 16.9883 20.5886 18.7886 18.7882C20.589 16.9879 21.6004 14.5461 21.6004 12C21.6004 9.45395 20.589 7.01215 18.7886 5.2118C16.9883 3.41145 14.5465 2.40002 12.0004 2.40002C9.45431 2.40002 7.01252 3.41145 5.21217 5.2118C3.41182 7.01215 2.40039 9.45395 2.40039 12C2.40039 14.5461 3.41182 16.9879 5.21217 18.7882C7.01252 20.5886 9.45431 21.6 12.0004 21.6ZM13.2004 7.20002C13.2004 6.88176 13.074 6.57654 12.8489 6.3515C12.6239 6.12645 12.3187 6.00002 12.0004 6.00002C11.6821 6.00002 11.3769 6.12645 11.1519 6.3515C10.9268 6.57654 10.8004 6.88176 10.8004 7.20002V12C10.8005 12.3183 10.9269 12.6234 11.152 12.8484L14.5456 16.2432C14.6571 16.3547 14.7894 16.4432 14.9351 16.5035C15.0808 16.5638 15.2369 16.5949 15.3946 16.5949C15.5523 16.5949 15.7084 16.5638 15.8541 16.5035C15.9997 16.4432 16.1321 16.3547 16.2436 16.2432C16.3551 16.1317 16.4435 15.9994 16.5039 15.8537C16.5642 15.708 16.5953 15.5519 16.5953 15.3942C16.5953 15.2366 16.5642 15.0804 16.5039 14.9347C16.4435 14.7891 16.3551 14.6567 16.2436 14.5452L13.2004 11.5032V7.20002Z" fill="#D91A3C"/>
</svg>