<svg xmlns="http://www.w3.org/2000/svg" width="24" height="24" viewBox="0 0 24 24" fill="none">
  <path fill-rule="evenodd" clip-rule="evenodd" d="M9.60039 4.79997C8.32735 4.79997 7.10645 5.30568 6.20628 6.20585C5.3061 7.10603 4.80039 8.32693 4.80039 9.59997C4.80039 10.873 5.3061 12.0939 6.20628 12.9941C7.10645 13.8943 8.32735 14.4 9.60039 14.4C10.8734 14.4 12.0943 13.8943 12.9945 12.9941C13.8947 12.0939 14.4004 10.873 14.4004 9.59997C14.4004 8.32693 13.8947 7.10603 12.9945 6.20585C12.0943 5.30568 10.8734 4.79997 9.60039 4.79997ZM2.40039 9.59997C2.40025 8.46681 2.66756 7.34962 3.1806 6.33926C3.69363 5.32889 4.4379 4.45388 5.35287 3.7854C6.26783 3.11691 7.32767 2.67382 8.44617 2.49217C9.56467 2.31051 10.7102 2.39542 11.7897 2.73999C12.8692 3.08455 13.8522 3.67905 14.6586 4.47512C15.465 5.2712 16.0721 6.24637 16.4306 7.32133C16.7891 8.39629 16.8888 9.54068 16.7216 10.6614C16.5544 11.7822 16.125 12.8476 15.4684 13.7712L21.2488 19.5516C21.4674 19.7779 21.5883 20.081 21.5856 20.3956C21.5829 20.7103 21.4567 21.0113 21.2342 21.2338C21.0117 21.4562 20.7107 21.5824 20.3961 21.5852C20.0814 21.5879 19.7783 21.467 19.552 21.2484L13.7728 15.4692C12.6956 16.2351 11.4284 16.6898 10.11 16.7833C8.79159 16.8769 7.47288 16.6057 6.29835 15.9995C5.12382 15.3934 4.13881 14.4756 3.45126 13.3468C2.7637 12.218 2.40013 10.9217 2.40039 9.59997Z" fill="#186DE4"/>
</svg>