<svg width="24" height="24" viewBox="0 0 24 24" fill="none" xmlns="http://www.w3.org/2000/svg">
<path fill-rule="evenodd" clip-rule="evenodd" d="M2.40039 5.99998C2.40039 5.36346 2.65325 4.75301 3.10333 4.30292C3.55342 3.85283 4.16387 3.59998 4.80039 3.59998H19.2004C19.8369 3.59998 20.4474 3.85283 20.8974 4.30292C21.3475 4.75301 21.6004 5.36346 21.6004 5.99998V8.39998C21.6004 9.03649 21.3475 9.64694 20.8974 10.097C20.4474 10.5471 19.8369 10.8 19.2004 10.8H4.80039C4.16387 10.8 3.55342 10.5471 3.10333 10.097C2.65325 9.64694 2.40039 9.03649 2.40039 8.39998V5.99998ZM19.2004 7.19998C19.2004 7.51824 19.074 7.82346 18.8489 8.0485C18.6239 8.27355 18.3187 8.39998 18.0004 8.39998C17.6821 8.39998 17.3769 8.27355 17.1519 8.0485C16.9268 7.82346 16.8004 7.51824 16.8004 7.19998C16.8004 6.88172 16.9268 6.57649 17.1519 6.35145C17.3769 6.1264 17.6821 5.99998 18.0004 5.99998C18.3187 5.99998 18.6239 6.1264 18.8489 6.35145C19.074 6.57649 19.2004 6.88172 19.2004 7.19998ZM2.40039 15.6C2.40039 14.9635 2.65325 14.353 3.10333 13.9029C3.55342 13.4528 4.16387 13.2 4.80039 13.2H19.2004C19.8369 13.2 20.4474 13.4528 20.8974 13.9029C21.3475 14.353 21.6004 14.9635 21.6004 15.6V18C21.6004 18.6365 21.3475 19.2469 20.8974 19.697C20.4474 20.1471 19.8369 20.4 19.2004 20.4H4.80039C4.16387 20.4 3.55342 20.1471 3.10333 19.697C2.65325 19.2469 2.40039 18.6365 2.40039 18V15.6ZM19.2004 16.8C19.2004 17.1182 19.074 17.4235 18.8489 17.6485C18.6239 17.8735 18.3187 18 18.0004 18C17.6821 18 17.3769 17.8735 17.1519 17.6485C16.9268 17.4235 16.8004 17.1182 16.8004 16.8C16.8004 16.4817 16.9268 16.1765 17.1519 15.9514C17.3769 15.7264 17.6821 15.6 18.0004 15.6C18.3187 15.6 18.6239 15.7264 18.8489 15.9514C19.074 16.1765 19.2004 16.4817 19.2004 16.8Z" fill="#186DE4"/>
</svg>
