<svg width="24" height="24" viewBox="0 0 24 24" fill="none" xmlns="http://www.w3.org/2000/svg">
<path fill-rule="evenodd" clip-rule="evenodd" d="M21.5999 12C21.5999 14.5461 20.5885 16.9879 18.7881 18.7882C16.9878 20.5886 14.546 21.6 11.9999 21.6C9.45382 21.6 7.01203 20.5886 5.21168 18.7882C3.41133 16.9879 2.3999 14.5461 2.3999 12C2.3999 9.45395 3.41133 7.01215 5.21168 5.2118C7.01203 3.41145 9.45382 2.40002 11.9999 2.40002C14.546 2.40002 16.9878 3.41145 18.7881 5.2118C20.5885 7.01215 21.5999 9.45395 21.5999 12ZM13.1999 16.8C13.1999 17.1183 13.0735 17.4235 12.8484 17.6486C12.6234 17.8736 12.3182 18 11.9999 18C11.6816 18 11.3764 17.8736 11.1514 17.6486C10.9263 17.4235 10.7999 17.1183 10.7999 16.8C10.7999 16.4818 10.9263 16.1765 11.1514 15.9515C11.3764 15.7265 11.6816 15.6 11.9999 15.6C12.3182 15.6 12.6234 15.7265 12.8484 15.9515C13.0735 16.1765 13.1999 16.4818 13.1999 16.8ZM11.9999 6.00002C11.6816 6.00002 11.3764 6.12645 11.1514 6.3515C10.9263 6.57654 10.7999 6.88176 10.7999 7.20002V12C10.7999 12.3183 10.9263 12.6235 11.1514 12.8486C11.3764 13.0736 11.6816 13.2 11.9999 13.2C12.3182 13.2 12.6234 13.0736 12.8484 12.8486C13.0735 12.6235 13.1999 12.3183 13.1999 12V7.20002C13.1999 6.88176 13.0735 6.57654 12.8484 6.3515C12.6234 6.12645 12.3182 6.00002 11.9999 6.00002Z" fill="#EE5151"/>
</svg>
